<?xml version="1.0" encoding="UTF-8"?>
<svg width="192px" height="192px" viewBox="0 0 192 192" version="1.1" xmlns="http://www.w3.org/2000/svg" xmlns:xlink="http://www.w3.org/1999/xlink">
    <!-- Generator: Sketch 49.1 (51147) - http://www.bohemiancoding.com/sketch -->
    <title>Favicon-192</title>
    <desc>Created with Sketch.</desc>
    <defs></defs>
    <g id="Favicon-192" stroke="none" stroke-width="1" fill="none" fill-rule="evenodd">
        <path d="M101.553719,96.079047 L112.535073,96.079047 C112.666878,96.0808708 112.799117,96.079047 112.931767,96.079047 C121.038029,96.079047 127.609453,102.889922 127.609453,111.291563 C127.609453,119.693203 121.038029,126.504079 112.931767,126.504079 C112.799117,126.504079 112.666878,126.502255 112.535073,126.49863 L112.535073,142.514569 C112.667099,142.516357 112.799332,142.517253 112.931767,142.517253 C129.363379,142.517253 142.683833,128.716269 142.683833,111.691892 C142.683833,95.6822698 130.904011,82.5232255 115.834711,81.0113905 L115.834711,80.8665312 L85.6859504,80.8665312 L85.6859504,127.19823 L85.6859504,127.091723 C82.6072947,127.109431 78.2514548,127.303385 75.5386154,126.484503 C72.7070285,125.629777 70.6619721,123.523759 68.6863382,121.903292 C65.0363301,118.909461 64.3957429,114.853243 64.2863657,110.276677 L64.2644628,110.276677 L64.2644628,5.37396364 C74.1985613,1.89275617 84.878424,0 96,0 C149.019336,0 192,43.0160546 192,96.079047 C192,147.276378 151.98855,189.120839 101.553719,192 L101.553719,96.079047 Z M85.6859504,191.610059 C37.5168293,186.460567 0,145.654677 0,96.079047 C0,60.3526089 19.4835946,29.1805552 48.3966697,12.6252784 L48.3966942,113.693539 L48.4516526,113.693539 C49.3937257,129.209119 62.3294339,141.502368 78.1487603,141.502368 C78.2811956,141.502368 78.4134288,141.501506 78.5454546,141.499788 L78.5454545,141.716594 L85.6859504,141.716594 L85.6859504,191.610059 L85.6859504,191.610059 Z" id="Combined-Shape" fill="#ECC54C"></path>
    </g>
</svg>